<svg width="44" height="53" fill="none" xmlns="http://www.w3.org/2000/svg"><path d="M32.458 16.87c3.322 2.063 7.828.205 10.049-4.147a11.082 11.082 0 001.223-5.108c-.025-2.843-1.23-5.28-3.228-6.524C38.83.052 36.833-.044 34.883.824c-1.818.809-3.39 2.374-4.429 4.413a11.067 11.067 0 00-1.229 5.11 9.005 9.005 0 00.76 3.592l-2.398 4.705c-1.583 3.102-6.79 1.182-12.151 11.687-5.36 10.5-2.51 22.417-2.51 22.417l18.65-36.564c.278.253.565.489.88.685h.002zm1.733-3.399c-1.56-.964-1.895-3.932-.669-6.328.646-1.267 1.594-2.23 2.668-2.704.94-.421 1.855-.402 2.58.047.903.559 1.424 1.718 1.437 3.174.01 1.057-.256 2.15-.77 3.157-1.24 2.437-3.643 3.651-5.245 2.655h-.002zM22.835 28.949c-.851.011-1.548-.739-1.557-1.68 0-.071.03-.132.034-.202l2.675 1.263a1.56 1.56 0 01-.514.452 1.401 1.401 0 01-.638.17v-.003zm1.526-1.722c0 .074-.029.136-.033.204l-2.672-1.26c.139-.192.313-.347.512-.455.198-.108.416-.166.637-.17.85-.012 1.548.738 1.556 1.68zm8.06 25.262s2.644-11.99-2.899-22.345a30.849 30.849 0 00-1.652-2.733l-4.325 8.48 8.877 16.596v.002zm-11.954-31.44c-1.504-.662-2.667-1.082-3.297-2.266l-2.48-4.64a9 9 0 00.697-3.61 11.062 11.062 0 00-1.313-5.075C11.777 1.165 7.236-.573 3.952 1.582 1.978 2.874.813 5.343.838 8.19c.016 1.74.471 3.498 1.313 5.076 1.078 2.01 2.677 3.533 4.507 4.293 1.966.814 3.961.663 5.617-.422.305-.207.594-.442.862-.705l4.12 7.698a17.79 17.79 0 013.21-3.08v-.003zM7.905 13.914c-1.082-.45-2.046-1.384-2.715-2.631-1.264-2.363-.983-5.342.556-6.352 1.582-1.037 4.008.114 5.293 2.515a6.82 6.82 0 01.824 3.134c.013 1.46-.488 2.627-1.381 3.211-.718.471-1.634.515-2.578.123h.001z" fill="#fff"/></svg>