<svg width="44" height="53" viewBox="0 0 44 53" fill="none" xmlns="http://www.w3.org/2000/svg">
<path d="M32.4584 16.8692C35.7798 18.9332 40.286 17.0754 42.5065 12.723C43.3121 11.1671 43.7341 9.40557 43.7303 7.61487C43.7054 4.77244 42.5002 2.33529 40.5021 1.09071C38.8299 0.0520225 36.833 -0.0437907 34.8833 0.823577C33.0652 1.63271 31.4933 3.1979 30.454 5.23686C29.6458 6.79258 29.2219 8.55503 29.225 10.347C29.2364 11.6573 29.5113 12.8744 29.9857 13.9389L27.5869 18.6442C26.0037 21.7458 20.7968 19.8259 15.436 30.3306C10.0752 40.8313 12.926 52.7482 12.926 52.7482L31.5769 16.1839C31.8539 16.4372 32.1414 16.6729 32.4567 16.8692L32.4584 16.8692ZM34.1905 13.4715C32.6317 12.5073 32.2957 9.53856 33.5221 7.1427C34.1681 5.87619 35.1163 4.91325 36.1904 4.43929C37.1292 4.01777 38.0455 4.03661 38.77 4.48638C39.6734 5.04473 40.1944 6.20404 40.2072 7.6603C40.2164 8.71745 39.9511 9.80945 39.4367 10.8172C38.1966 13.2541 35.7936 14.4683 34.1923 13.4715L34.1905 13.4715ZM22.8356 28.9479C21.9848 28.9594 21.2876 28.2094 21.2794 27.2671C21.2788 27.197 21.3082 27.1362 21.3129 27.0661L23.9877 28.3288C23.8483 28.5193 23.6729 28.6737 23.4739 28.7814C23.2749 28.889 23.057 28.9472 22.8357 28.9518L22.8356 28.9479ZM24.3621 27.2256C24.3628 27.2996 24.3334 27.3623 24.3287 27.4305L21.6574 26.1697C21.7955 25.9785 21.9701 25.8233 22.1687 25.7153C22.3672 25.6072 22.5848 25.549 22.8059 25.5448C23.6567 25.5334 24.3539 26.2833 24.3621 27.2256ZM32.4228 52.488C32.4228 52.488 35.0663 40.4972 29.5231 30.1431C28.9679 29.105 28.4176 28.2206 27.8714 27.4101L23.5464 35.8895L32.4228 52.486L32.4228 52.488ZM20.4675 21.0473C18.9642 20.386 17.8013 19.9655 17.1708 18.7823L14.6902 14.1427C15.1666 13.0119 15.4052 11.7771 15.388 10.5311C15.3728 8.79258 14.917 7.03853 14.0752 5.45712C11.7773 1.16546 7.23617 -0.572599 3.95172 1.58223C1.97752 2.87439 0.813448 5.3434 0.838334 8.18973C0.853552 9.93023 1.30936 11.6882 2.15118 13.2657C3.22933 15.2762 4.82822 16.7987 6.65829 17.5588C8.62448 18.3735 10.6192 18.2221 12.2746 17.1367C12.5803 16.9303 12.8689 16.6945 13.137 16.4319L17.2563 24.1299C18.207 22.9597 19.2857 21.9249 20.4675 21.0492L20.4675 21.0473ZM7.90546 13.9146C6.82334 13.4657 5.85853 12.5305 5.19049 11.2836C3.92604 8.9212 4.20654 5.94226 5.74629 4.93242C7.32809 3.89477 9.75352 5.04599 11.0394 7.44699C11.5572 8.39332 11.8412 9.4737 11.8632 10.5805C11.8759 12.0406 11.3752 13.2079 10.4818 13.7923C9.76363 14.2634 8.8479 14.3069 7.90369 13.9146L7.90546 13.9146Z" fill="white"/>
</svg>
